<svg xmlns="http://www.w3.org/2000/svg" xmlns:xlink="http://www.w3.org/1999/xlink" width="700" zoomAndPan="magnify" viewBox="0 0 525.12 274.08" height="355" preserveAspectRatio="xMidYMid meet" version="1.0"><defs><g/><clipPath id="17539ba3cf"><path d="M 89 97 L 143 97 L 143 169 L 89 169 Z M 89 97 " clip-rule="nonzero"/></clipPath><clipPath id="f30cd52bf0"><path d="M 124.21875 92.195312 L 147.292969 105.777344 L 107.605469 173.195312 L 84.53125 159.613281 Z M 124.21875 92.195312 " clip-rule="nonzero"/></clipPath><clipPath id="bc357d50ec"><path d="M 135.753906 98.984375 C 138.8125 100.789062 141.03125 103.730469 141.921875 107.167969 C 142.8125 110.605469 142.300781 114.253906 140.5 117.3125 L 114.414062 161.628906 C 112.613281 164.6875 109.671875 166.90625 106.234375 167.796875 C 102.796875 168.6875 99.148438 168.175781 96.085938 166.375 C 93.027344 164.574219 90.808594 161.632812 89.917969 158.195312 C 89.027344 154.757812 89.539062 151.105469 91.339844 148.046875 L 117.425781 103.730469 C 119.226562 100.671875 122.171875 98.453125 125.609375 97.5625 C 129.042969 96.671875 132.695312 97.183594 135.753906 98.984375 Z M 135.753906 98.984375 " clip-rule="nonzero"/></clipPath><clipPath id="a75d6c06c7"><path d="M 0 0 L 54 0 L 54 71.875 L 0 71.875 Z M 0 0 " clip-rule="nonzero"/></clipPath><clipPath id="aee2022e05"><path d="M 35.21875 -4.804688 L 58.292969 8.777344 L 18.605469 76.195312 L -4.46875 62.613281 Z M 35.21875 -4.804688 " clip-rule="nonzero"/></clipPath><clipPath id="f762a8ade9"><path d="M 46.753906 1.984375 C 49.8125 3.789062 52.03125 6.730469 52.921875 10.167969 C 53.8125 13.605469 53.300781 17.253906 51.5 20.3125 L 25.414062 64.628906 C 23.613281 67.6875 20.671875 69.90625 17.234375 70.796875 C 13.796875 71.6875 10.148438 71.175781 7.085938 69.375 C 4.027344 67.574219 1.808594 64.632812 0.917969 61.195312 C 0.0273438 57.757812 0.539062 54.105469 2.339844 51.046875 L 28.425781 6.730469 C 30.226562 3.671875 33.171875 1.453125 36.609375 0.5625 C 40.042969 -0.328125 43.695312 0.183594 46.753906 1.984375 Z M 46.753906 1.984375 " clip-rule="nonzero"/></clipPath><clipPath id="ccd6d65348"><rect x="0" width="54" y="0" height="72"/></clipPath><clipPath id="0a599dfb20"><path d="M 62.386719 118.886719 L 89.972656 118.886719 L 89.972656 146.472656 L 62.386719 146.472656 Z M 62.386719 118.886719 " clip-rule="nonzero"/></clipPath><clipPath id="a2879c4a62"><path d="M 76.179688 118.886719 C 68.5625 118.886719 62.386719 125.0625 62.386719 132.679688 C 62.386719 140.296875 68.5625 146.472656 76.179688 146.472656 C 83.796875 146.472656 89.972656 140.296875 89.972656 132.679688 C 89.972656 125.0625 83.796875 118.886719 76.179688 118.886719 Z M 76.179688 118.886719 " clip-rule="nonzero"/></clipPath><clipPath id="55bb00c09e"><path d="M 0.386719 0.886719 L 27.972656 0.886719 L 27.972656 28.472656 L 0.386719 28.472656 Z M 0.386719 0.886719 " clip-rule="nonzero"/></clipPath><clipPath id="c7873698f7"><path d="M 14.179688 0.886719 C 6.5625 0.886719 0.386719 7.0625 0.386719 14.679688 C 0.386719 22.296875 6.5625 28.472656 14.179688 28.472656 C 21.796875 28.472656 27.972656 22.296875 27.972656 14.679688 C 27.972656 7.0625 21.796875 0.886719 14.179688 0.886719 Z M 14.179688 0.886719 " clip-rule="nonzero"/></clipPath><clipPath id="bbefde873c"><rect x="0" width="28" y="0" height="29"/></clipPath></defs><g clip-path="url(#17539ba3cf)"><g clip-path="url(#f30cd52bf0)"><g clip-path="url(#bc357d50ec)"><g transform="matrix(1, 0, 0, 1, 89, 97)"><g clip-path="url(#ccd6d65348)"><g clip-path="url(#a75d6c06c7)"><g clip-path="url(#aee2022e05)"><g clip-path="url(#f762a8ade9)"><path fill="#1b17ff" d="M 35.21875 -4.804688 L 58.292969 8.777344 L 18.605469 76.195312 L -4.46875 62.613281 Z M 35.21875 -4.804688 " fill-opacity="1" fill-rule="nonzero"/></g></g></g></g></g></g></g></g><g clip-path="url(#0a599dfb20)"><g clip-path="url(#a2879c4a62)"><g transform="matrix(1, 0, 0, 1, 62, 118)"><g clip-path="url(#bbefde873c)"><g clip-path="url(#55bb00c09e)"><g clip-path="url(#c7873698f7)"><path fill="#1b17ff" d="M 0.386719 0.886719 L 27.972656 0.886719 L 27.972656 28.472656 L 0.386719 28.472656 Z M 0.386719 0.886719 " fill-opacity="1" fill-rule="nonzero"/></g></g></g></g></g></g><g fill="#ffffff" fill-opacity="1"><g transform="translate(224.477207, 156.225603)"><g><path d="M 29.421875 0 L 21.484375 0 L 21.484375 -53.875 L 2.203125 -53.875 L 2.203125 -61.015625 L 48.765625 -61.015625 L 48.765625 -53.875 L 29.421875 -53.875 Z M 29.421875 0 "/></g></g></g><g fill="#ffffff" fill-opacity="1"><g transform="translate(270.152543, 156.225603)"><g><path d="M 11.21875 -54.6875 C 9.632812 -54.6875 8.367188 -55.164062 7.421875 -56.125 C 6.484375 -57.082031 6.015625 -58.25 6.015625 -59.625 C 6.015625 -60.96875 6.484375 -62.117188 7.421875 -63.078125 C 8.367188 -64.035156 9.648438 -64.515625 11.265625 -64.515625 C 12.910156 -64.515625 14.203125 -64.035156 15.140625 -63.078125 C 16.078125 -62.117188 16.546875 -60.96875 16.546875 -59.625 C 16.546875 -58.25 16.078125 -57.082031 15.140625 -56.125 C 14.203125 -55.164062 12.894531 -54.6875 11.21875 -54.6875 Z M 15.125 0 L 7.40625 0 L 7.40625 -45.765625 L 15.125 -45.765625 Z M 15.125 0 "/></g></g></g><g fill="#ffffff" fill-opacity="1"><g transform="translate(287.342393, 156.225603)"><g><path d="M 26.921875 1.296875 C 23.597656 1.296875 20.519531 0.671875 17.6875 -0.578125 C 14.863281 -1.835938 12.390625 -3.570312 10.265625 -5.78125 C 8.148438 -8 6.5 -10.566406 5.3125 -13.484375 C 4.132812 -16.398438 3.546875 -19.53125 3.546875 -22.875 C 3.546875 -26.226562 4.132812 -29.363281 5.3125 -32.28125 C 6.5 -35.195312 8.148438 -37.757812 10.265625 -39.96875 C 12.390625 -42.1875 14.863281 -43.921875 17.6875 -45.171875 C 20.519531 -46.429688 23.597656 -47.0625 26.921875 -47.0625 C 30.566406 -47.0625 33.867188 -46.359375 36.828125 -44.953125 C 39.785156 -43.546875 42.300781 -41.625 44.375 -39.1875 C 46.457031 -36.75 47.953125 -33.945312 48.859375 -30.78125 L 40.90625 -30.78125 C 39.71875 -33.738281 37.875 -35.976562 35.375 -37.5 C 32.875 -39.03125 30.070312 -39.796875 26.96875 -39.796875 C 24.957031 -39.796875 23.015625 -39.40625 21.140625 -38.625 C 19.273438 -37.84375 17.59375 -36.71875 16.09375 -35.25 C 14.601562 -33.789062 13.425781 -32.015625 12.5625 -29.921875 C 11.695312 -27.828125 11.265625 -25.476562 11.265625 -22.875 C 11.265625 -20.25 11.703125 -17.890625 12.578125 -15.796875 C 13.460938 -13.703125 14.648438 -11.921875 16.140625 -10.453125 C 17.640625 -8.984375 19.320312 -7.859375 21.1875 -7.078125 C 23.0625 -6.304688 24.988281 -5.921875 26.96875 -5.921875 C 30.039062 -5.921875 32.832031 -6.703125 35.34375 -8.265625 C 37.863281 -9.835938 39.71875 -12.195312 40.90625 -15.34375 L 48.8125 -15.34375 C 47.9375 -12.050781 46.46875 -9.15625 44.40625 -6.65625 C 42.34375 -4.164062 39.816406 -2.21875 36.828125 -0.8125 C 33.835938 0.59375 30.535156 1.296875 26.921875 1.296875 Z M 26.921875 1.296875 "/></g></g></g><g fill="#ffffff" fill-opacity="1"><g transform="translate(333.735473, 156.225603)"><g><path d="M 46.5625 0 L 37.8125 0 L 23.6875 -22.34375 L 15.125 -12.875 L 15.125 0 L 7.40625 0 L 7.40625 -63.171875 L 15.125 -63.171875 L 15.125 -21.40625 L 34.765625 -45.765625 L 44.234375 -45.765625 L 29.34375 -27.40625 Z M 46.5625 0 "/></g></g></g><g fill="#ffffff" fill-opacity="1"><g transform="translate(375.687509, 156.225603)"><g><path d="M 49.4375 -24 C 49.4375 -23.613281 49.425781 -23.203125 49.40625 -22.765625 C 49.394531 -22.328125 49.359375 -21.691406 49.296875 -20.859375 L 11.34375 -20.859375 C 11.675781 -17.804688 12.570312 -15.160156 14.03125 -12.921875 C 15.5 -10.679688 17.335938 -8.953125 19.546875 -7.734375 C 21.765625 -6.523438 24.128906 -5.921875 26.640625 -5.921875 C 29.722656 -5.921875 32.351562 -6.585938 34.53125 -7.921875 C 36.71875 -9.253906 38.320312 -11.203125 39.34375 -13.765625 L 48 -13.765625 C 47.34375 -11.671875 46.363281 -9.710938 45.0625 -7.890625 C 43.757812 -6.066406 42.1875 -4.472656 40.34375 -3.109375 C 38.507812 -1.753906 36.445312 -0.691406 34.15625 0.078125 C 31.875 0.859375 29.429688 1.25 26.828125 1.25 C 23.503906 1.25 20.429688 0.628906 17.609375 -0.609375 C 14.785156 -1.847656 12.316406 -3.570312 10.203125 -5.78125 C 8.097656 -8 6.460938 -10.566406 5.296875 -13.484375 C 4.128906 -16.398438 3.546875 -19.53125 3.546875 -22.875 C 3.546875 -26.226562 4.128906 -29.363281 5.296875 -32.28125 C 6.460938 -35.195312 8.097656 -37.757812 10.203125 -39.96875 C 12.316406 -42.1875 14.785156 -43.921875 17.609375 -45.171875 C 20.429688 -46.429688 23.503906 -47.0625 26.828125 -47.0625 C 30.117188 -47.0625 33.144531 -46.445312 35.90625 -45.21875 C 38.675781 -43.988281 41.066406 -42.296875 43.078125 -40.140625 C 45.097656 -37.992188 46.660156 -35.535156 47.765625 -32.765625 C 48.878906 -30.003906 49.4375 -27.082031 49.4375 -24 Z M 11.703125 -27.671875 L 41.546875 -27.671875 C 41.421875 -29.296875 40.945312 -30.835938 40.125 -32.296875 C 39.300781 -33.765625 38.21875 -35.054688 36.875 -36.171875 C 35.53125 -37.296875 33.984375 -38.179688 32.234375 -38.828125 C 30.484375 -39.472656 28.632812 -39.796875 26.6875 -39.796875 C 24.414062 -39.796875 22.25 -39.332031 20.1875 -38.40625 C 18.125 -37.476562 16.34375 -36.113281 14.84375 -34.3125 C 13.351562 -32.519531 12.304688 -30.304688 11.703125 -27.671875 Z M 11.703125 -27.671875 "/></g></g></g><g fill="#ffffff" fill-opacity="1"><g transform="translate(422.618909, 156.225603)"><g><path d="M 33.515625 0 L 25.078125 0 C 23.335938 0 21.613281 -0.222656 19.90625 -0.671875 C 18.207031 -1.117188 16.660156 -1.941406 15.265625 -3.140625 C 13.878906 -4.335938 12.765625 -6.050781 11.921875 -8.28125 C 11.085938 -10.507812 10.671875 -13.398438 10.671875 -16.953125 L 10.671875 -38.984375 L 0.5 -38.984375 L 0.5 -45.765625 L 10.671875 -45.765625 L 10.671875 -59.34375 L 18.390625 -59.390625 L 18.390625 -45.765625 L 33.515625 -45.765625 L 33.515625 -38.984375 L 18.390625 -38.984375 L 18.390625 -16.59375 C 18.390625 -14.46875 18.617188 -12.738281 19.078125 -11.40625 C 19.546875 -10.082031 20.175781 -9.066406 20.96875 -8.359375 C 21.757812 -7.660156 22.640625 -7.179688 23.609375 -6.921875 C 24.585938 -6.671875 25.585938 -6.546875 26.609375 -6.546875 L 33.515625 -6.546875 Z M 33.515625 0 "/></g></g></g></svg>