<?xml version="1.0" encoding="UTF-8"?>
<svg id="SEMALO" xmlns="http://www.w3.org/2000/svg" version="1.1" viewBox="0 0 700.42 355.18">
  <!-- Generator: Adobe Illustrator 30.0.0, SVG Export Plug-In . SVG Version: 2.1.1 Build 123)  -->
  <defs>
    <style>
      .st0 {
        fill: #ef7d00;
      }

      .st0, .st1 {
        fill-rule: evenodd;
      }

      .st1 {
        fill: #fff;
      }
    </style>
  </defs>
  <path class="st1" d="M454.39,354.42c-1.87,0-3.76,0-5.65-.03-97.74-1.04-162.37-18.2-209.56-30.72-29.91-7.94-53.53-14.21-75.65-14.21-25.7,0-47.97,8.52-74.47,28.48l-6.57,4.95-6.12-5.49C9.11,277.17-16.18,196.63,10.36,127.22c12.05-31.51,34.06-58.02,63.66-76.69,31.21-19.67,70.43-30.07,113.42-30.07,19.47,0,39.96,2.1,60.9,6.25,98,19.41,168.75,28.45,222.65,28.45,67.75,0,110.94-14.31,140.02-46.41l7.94-8.76,7.32,9.28c70.32,89.14,91.54,174.37,59.73,239.97-15.93,32.85-45.26,59.73-84.83,77.72-40.05,18.21-89.44,27.45-146.78,27.45h0Z"/>
  <path class="st0" d="M618.43,15.48c-53.28,58.8-150.65,64.9-372.02,21.05C25.03-7.32-65.71,196.73,83.04,329.95c99.8-75.19,140.81,12.04,365.8,14.43,225,2.4,317.95-140.85,169.58-328.91Z"/>
  <path class="st1" d="M677.36,144.92c-9.9-42.14-33.42-82.41-59.64-116.92-.8.77-1.6,1.53-2.42,2.28-35.27,32.38-82.53,41.29-128.9,42.86-34.32,1.16-69.35-1.64-103.41-5.72-46.28-5.54-92.47-13.77-138.19-22.82-45.97-9.11-95.8-9.01-139.4,9.95-33.51,14.57-60.76,39.48-75.55,73.18-13.41,30.57-14.73,64.29-6.1,96.35,9.96,36.98,32.21,69.22,59.87,95.27,21.49-15.27,44.34-26,71.28-27.81,17.35-1.17,34.56,1.42,51.46,5.13,19.98,4.38,39.79,10.14,59.62,15.2,25.71,6.56,51.39,12.11,77.64,16.09,34.88,5.29,70.03,7.84,105.3,8.22,47.38.51,98.46-5.43,142.19-24.66,32.64-14.35,61.75-36.59,77.92-69.05,15.26-30.64,16.04-64.67,8.33-97.53ZM665.36,240.62c-15.73,31.58-44.17,53.16-75.89,67.12-43.22,19.01-93.62,24.81-140.49,24.32-35.05-.37-70.06-2.92-104.72-8.17-26.02-3.95-51.75-9.51-77.24-16.01-19.92-5.08-39.67-10.84-59.76-15.24-17.25-3.78-34.92-6.4-52.62-5.21-26.41,1.77-49.17,11.86-70.61,26.61-25.98-25.1-46.84-55.89-56.3-91.04-8.38-31.14-7.13-63.93,5.9-93.63,14.37-32.74,40.87-56.9,73.42-71.06,42.8-18.61,91.82-18.62,136.96-9.68,45.9,9.09,92.02,17.3,138.5,22.87,34.43,4.13,69.34,6.92,104.04,5.75,47-1.59,94.69-10.68,130.64-43.12,24.67,33.11,46.71,71.46,56.17,111.74,7.49,31.89,6.83,64.99-8,94.76Z"/>
  <g>
    <path class="st1" d="M598.14,100.9h.63c.72,0,1.25.06,1.58.17.33.12.65.33.94.65.3.31.85,1.07,1.65,2.28l2.26,3.37h3.74l-1.89-3.02c-.75-1.21-1.34-2.04-1.78-2.52-.44-.47-1-.91-1.68-1.3,1.36-.19,2.39-.67,3.07-1.43.68-.76,1.03-1.72,1.03-2.88,0-.92-.22-1.73-.67-2.44-.45-.71-1.05-1.21-1.81-1.48-.75-.28-1.95-.42-3.61-.42h-6.59v15.5h3.13v-6.47ZM598.14,94.49h2.44c1.27,0,2.03.02,2.28.05.51.09.9.29,1.18.61.28.32.42.74.42,1.26,0,.47-.11.85-.32,1.16-.21.31-.51.53-.88.66-.37.13-1.31.19-2.81.19h-2.31v-3.93Z"/>
    <path class="st1" d="M601.97,113.71c7.78,0,14.09-6.31,14.09-14.09s-6.31-14.09-14.09-14.09-14.09,6.31-14.09,14.09,6.31,14.09,14.09,14.09ZM601.97,87.88c6.48,0,11.74,5.26,11.74,11.74s-5.26,11.74-11.74,11.74-11.74-5.26-11.74-11.74,5.26-11.74,11.74-11.74Z"/>
    <path class="st1" d="M140.44,145.51c-9.89-6.91-14.02-13.89-12.4-20.95,2.44-10.65,8.72-15.98,18.85-15.98,7,0,16.31,1.44,27.93,4.32l3.38-14.9c-12.27-2.59-21.66-3.89-28.16-3.89-12.88,0-24.03,3.17-33.47,9.5-9.95,6.48-16.17,15.41-18.68,26.78-.58,2.3-.96,4.54-1.15,6.7-.89,10.08,2.02,18.86,8.73,26.35,2.38,2.74,9.2,8.35,20.45,16.85,9.73,7.34,13.78,14.54,12.15,21.6-1.68,7.63-4.82,12.81-9.44,15.55-3.43,2.02-8.46,3.02-15.08,3.02-9.38,0-19.24-2.23-29.6-6.7l-3.76,17.06c11.42,3.74,21.57,5.62,30.44,5.62,13.63,0,25.46-3.1,35.51-9.29,11.76-7.2,19.2-17.78,22.31-31.75.59-2.45.99-4.82,1.19-7.13.92-10.37-1.93-19.22-8.53-26.56-2.73-3.02-9.63-8.42-20.69-16.2Z"/>
    <path class="st1" d="M203.35,210.95c-2.79-5.18-3.84-11.66-3.16-19.44.15-1.73.43-3.46.83-5.18l53.03-12.31c1.64-11.52.35-20.95-3.88-28.29-4.65-8.21-11.98-12.31-21.98-12.31-13.38,0-24.96,4.54-34.77,13.61-10.31,9.21-17.34,22.25-21.08,39.09-.83,3.74-1.4,7.34-1.7,10.8-1.12,12.67,1.39,22.42,7.54,29.26,6.15,6.84,15.03,10.26,26.66,10.26,13.63,0,25.25-4.18,34.86-12.53l4.27-18.57c-9.83,9.36-18.68,14.04-26.55,14.04-6.38,0-11.07-2.81-14.07-8.42ZM225.81,143.56c8.38,0,11.48,7.99,9.32,23.97l-31.4,7.34c5.59-20.88,12.96-31.32,22.08-31.32Z"/>
    <path class="st1" d="M289.08,174.45c1.79-7.49,4.7-13.53,8.73-18.14,4.33-5.18,9.44-7.78,15.31-7.78,5.38,0,7.71,4.03,6.99,12.09-.2,2.3-1.04,6.77-2.5,13.39l-13.56,60.04h28.88l13.33-59.61c1.79-7.49,4.7-13.53,8.73-18.14,4.33-5.18,9.38-7.78,15.13-7.78,5.38,0,7.71,4.03,6.99,12.09-.2,2.3-1.04,6.77-2.5,13.39l-13.56,60.04h28.88l13.31-59.39c.62-2.74,1.05-5.47,1.29-8.21.79-8.93-.64-16.13-4.28-21.6-4.2-6.19-10.99-9.29-20.37-9.29-15.38,0-26.65,5.18-33.81,15.55-2.96-10.37-10.69-15.55-23.19-15.55-10.25,0-19.17,2.59-26.75,7.78l2.49-11.23-42.56,8.42c-2.26.14-3.69,1.44-4.28,3.89-.45,2.3.24,3.67,2.08,4.1h.56c3.75,0,6.29.65,7.61,1.94,1.32,1.3,1.83,3.74,1.51,7.34-.17,1.87-.57,4.32-1.21,7.34l-15.46,68.9h28.88l13.33-59.61Z"/>
    <path class="st1" d="M407.36,223.69c5.13,8.49,13,12.74,23.63,12.74,7,0,12.35-1.8,16.04-5.4l-.64,3.02h28.88l22.88-101.94-30.16,6.05-1.17,4.75c-2.69-4.89-7.23-7.34-13.6-7.34-13.13,0-24.74,6.19-34.83,18.57-9.53,11.66-14.98,25.2-16.34,40.6-1.04,11.81.73,21.45,5.32,28.94ZM429.69,200.15c.39-4.46,1.29-9.65,2.69-15.55,5.31-23.32,13.09-34.99,23.34-34.99,4.37,0,6.1,5.18,5.19,15.55-.42,4.75-1.56,11.23-3.4,19.44l-1.79,7.56c-4.34,19.44-9.76,29.16-16.26,29.16-7.75,0-11-7.05-9.75-21.17Z"/>
    <path class="st1" d="M498.12,104.47h.56c3.75,0,6.32.68,7.69,2.05,1.38,1.37,1.92,3.78,1.61,7.23-.18,2.02-.64,4.46-1.4,7.34l-25.36,112.95h28.88l32.96-146-42.75,8.42c-2.26.14-3.63,1.44-4.09,3.89-.58,2.3.05,3.67,1.89,4.1Z"/>
    <path class="st1" d="M579.95,133.41c-13.38,0-24.97,4.54-34.77,13.61-10.44,9.21-17.53,22.25-21.27,39.09-.83,3.74-1.39,7.27-1.69,10.58-1.13,12.81,1.41,22.64,7.61,29.48,6.21,6.84,15.13,10.26,26.75,10.26,13.38,0,24.95-4.32,34.71-12.96,10.29-8.93,17.26-21.38,20.93-37.36.86-4.03,1.45-7.92,1.78-11.66,1.16-13.1-1.32-23.22-7.44-30.34-6.12-7.13-14.99-10.69-26.62-10.69ZM587.34,164.3c-.36,4.03-1.69,11.3-3.99,21.81-2.64,11.52-5.17,19.58-7.57,24.19-3.77,7.34-9.04,11.01-15.79,11.01-8,0-11.51-5.61-10.51-16.85.34-3.89,1.45-10.01,3.31-18.36,2.69-12.09,5.06-20.52,7.11-25.27,4.44-10.65,10.22-15.98,17.35-15.98,7.87,0,11.24,6.48,10.1,19.44Z"/>
    <path class="st1" d="M282.38,265.4c-21.67,10.31,8.31,44.73,47.07,27.22,108.3-56.7,297.47,19,281.31-66.13-4.13,76.16-160.24-23.77-328.38,38.91Z"/>
  </g>
</svg>